<svg width="132" height="30" viewBox="0 0 132 30" fill="none" xmlns="http://www.w3.org/2000/svg">
<g filter="url(#filter0_i_2_34)">
<path d="M0 15C0 6.71573 6.71573 0 15 0H117C125.284 0 132 6.71573 132 15V15C132 23.2843 125.284 30 117 30H15C6.71573 30 0 23.2843 0 15V15Z" fill="#FEC43A"></path>
<g clip-path="url(#clip0_2_34)">
<path fill-rule="evenodd" clip-rule="evenodd" d="M87.9258 13.8107C87.6861 15.4242 86.4839 15.4242 85.321 15.4242H84.6594L85.1235 12.4117C85.1515 12.2297 85.3047 12.0956 85.4846 12.0956H85.7879C86.5793 12.0956 87.327 12.0956 87.7125 12.5578C87.9431 12.8343 88.0129 13.2442 87.9258 13.8107ZM87.4197 9.60121H83.0341C82.7344 9.60121 82.4791 9.82485 82.4324 10.1285L80.6592 21.6543C80.6241 21.8816 80.7956 22.0873 81.0203 22.0873H83.2703C83.4802 22.0873 83.6589 21.9307 83.6915 21.7182L84.1944 18.4507C84.2411 18.1471 84.4964 17.9234 84.7962 17.9234H86.1839C89.0725 17.9234 90.7395 16.4905 91.1753 13.6507C91.3714 12.4087 91.1831 11.4327 90.6157 10.7495C89.9921 9.99838 88.8868 9.60121 87.4197 9.60121Z" fill="#2790C3"></path>
<path fill-rule="evenodd" clip-rule="evenodd" d="M56.6477 13.8107C56.4081 15.4242 55.2058 15.4242 54.0432 15.4242H53.3815L53.8455 12.4117C53.8737 12.2297 54.0268 12.0956 54.2066 12.0956H54.5099C55.3014 12.0956 56.0492 12.0956 56.4345 12.5578C56.6653 12.8343 56.7351 13.2442 56.6477 13.8107ZM56.1418 9.60121H51.7563C51.4565 9.60121 51.2013 9.82485 51.1546 10.1285L49.3811 21.6543C49.3462 21.8816 49.5177 22.0873 49.7422 22.0873H51.8361C52.1359 22.0873 52.3913 21.8636 52.438 21.5602L52.9166 18.4507C52.9631 18.1471 53.2185 17.9234 53.5183 17.9234H54.906C57.7944 17.9234 59.4616 16.4905 59.8974 13.6507C60.0935 12.4087 59.9053 11.4327 59.3379 10.7495C58.7141 9.99838 57.6088 9.60121 56.1418 9.60121Z" fill="#27346A"></path>
<path fill-rule="evenodd" clip-rule="evenodd" d="M66.3226 17.9485C66.1198 19.1784 65.1673 20.004 63.9524 20.004C63.3434 20.004 62.8558 19.8032 62.5424 19.423C62.2318 19.0461 62.1149 18.5091 62.2133 17.9111C62.4025 16.6923 63.3702 15.84 64.5665 15.84C65.1629 15.84 65.647 16.0428 65.9667 16.4265C66.2883 16.8129 66.4147 17.3535 66.3226 17.9485ZM69.2491 13.7592H67.1492C66.9693 13.7592 66.8162 13.8931 66.7882 14.0756L66.6957 14.6774L66.5489 14.4592C66.0942 13.7826 65.0808 13.5566 64.0687 13.5566C61.7487 13.5566 59.7669 15.3586 59.3812 17.8861C59.1804 19.1469 59.4654 20.3517 60.1629 21.1927C60.8036 21.9655 61.7182 22.2871 62.8077 22.2871C64.6777 22.2871 65.7148 21.0558 65.7148 21.0558L65.621 21.6539C65.5859 21.8814 65.7574 22.0873 65.9821 22.0873H67.8732C68.1729 22.0873 68.4282 21.8638 68.4749 21.5602L69.6102 14.1921C69.6452 13.9646 69.4738 13.7592 69.2491 13.7592Z" fill="#27346A"></path>
<path fill-rule="evenodd" clip-rule="evenodd" d="M97.6005 17.9485C97.3977 19.1784 96.4453 20.004 95.2305 20.004C94.6212 20.004 94.1338 19.8032 93.8203 19.423C93.5096 19.0461 93.3928 18.5091 93.4913 17.9111C93.6803 16.6923 94.6481 15.84 95.8446 15.84C96.4408 15.84 96.9251 16.0428 97.2446 16.4265C97.5662 16.8129 97.6925 17.3535 97.6005 17.9485ZM100.527 13.7592H98.4271C98.2472 13.7592 98.094 13.8931 98.066 14.0756L97.9736 14.6774L97.827 14.4592C97.3721 13.7826 96.3586 13.5566 95.3465 13.5566C93.0268 13.5566 91.0448 15.3586 90.6591 17.8861C90.4584 19.1469 90.7434 20.3517 91.4408 21.1927C92.0817 21.9655 92.996 22.2871 94.0855 22.2871C95.9556 22.2871 96.9927 21.0558 96.9927 21.0558L96.899 21.6539C96.8638 21.8814 97.0352 22.0873 97.2601 22.0873H99.151C99.4508 22.0873 99.706 21.8638 99.753 21.5602L100.888 14.1921C100.923 13.9646 100.752 13.7592 100.527 13.7592Z" fill="#2790C3"></path>
<mask id="mask0_2_34" style="mask-type:luminance" maskUnits="userSpaceOnUse" x="26" y="5" width="80" height="20">
<path d="M26.0118 25H105.754V5.16586H26.0118V25Z" fill="white"></path>
</mask>
<g mask="url(#mask0_2_34)">
<path fill-rule="evenodd" clip-rule="evenodd" d="M80.4331 13.7592H78.3224C78.1206 13.7592 77.9318 13.8618 77.8185 14.0329L74.907 18.4283L73.673 14.2046C73.596 13.9404 73.3587 13.7592 73.0894 13.7592H71.0146C70.7641 13.7592 70.5877 14.0117 70.6685 14.2547L72.9927 21.2471L70.8067 24.4087C70.635 24.6568 70.8083 25 71.1049 25H73.2136C73.4135 25 73.6005 24.8996 73.7144 24.7311L80.7337 14.3475C80.9016 14.099 80.7282 13.7592 80.4331 13.7592Z" fill="#27346A"></path>
</g>
<mask id="mask1_2_34" style="mask-type:luminance" maskUnits="userSpaceOnUse" x="26" y="5" width="80" height="20">
<path d="M26.0118 25H105.754V5.16586H26.0118V25Z" fill="white"></path>
</mask>
<g mask="url(#mask1_2_34)">
<path fill-rule="evenodd" clip-rule="evenodd" d="M103.002 9.91778L101.202 21.6543C101.167 21.8818 101.339 22.0873 101.563 22.0873H103.374C103.673 22.0873 103.929 21.8636 103.975 21.5602L105.75 10.0343C105.785 9.80687 105.614 9.60121 105.389 9.60121H103.363C103.183 9.60121 103.03 9.73555 103.002 9.91778Z" fill="#2790C3"></path>
</g>
<mask id="mask2_2_34" style="mask-type:luminance" maskUnits="userSpaceOnUse" x="26" y="5" width="80" height="20">
<path d="M26.0118 25H105.754V5.16586H26.0118V25Z" fill="white"></path>
</mask>
<g mask="url(#mask2_2_34)">
<path fill-rule="evenodd" clip-rule="evenodd" d="M34.3079 24.1828L34.8974 20.3513L34.9354 20.139C34.9638 19.9543 35.056 19.7855 35.195 19.6638C35.3339 19.5422 35.5111 19.4752 35.6938 19.4752H36.1619C36.9422 19.4752 37.659 19.3897 38.2927 19.2212C38.9687 19.0416 39.57 18.7618 40.0797 18.3903C40.6202 17.9964 41.0741 17.4871 41.429 16.877C41.8035 16.2333 42.0784 15.4584 42.2464 14.5739C42.3948 13.7929 42.4226 13.0937 42.3293 12.4956C42.2306 11.8636 41.9931 11.3244 41.6236 10.8925C41.3995 10.6309 41.1127 10.4042 40.7713 10.2188L40.7632 10.2143L40.763 10.2042C40.8823 9.42465 40.8778 8.77434 40.7494 8.21455C40.6206 7.65353 40.3596 7.14869 39.951 6.67151C39.1045 5.68283 37.5648 5.18141 35.3749 5.18141H29.3606C29.1596 5.18141 28.9645 5.25515 28.8115 5.38909C28.6586 5.52303 28.5573 5.70909 28.5257 5.91273L26.0215 22.1901C25.9986 22.3386 26.0402 22.4895 26.1356 22.6034C26.231 22.718 26.3697 22.7836 26.5164 22.7836H30.2476L30.2442 22.8018L29.988 24.4673C29.9683 24.5968 30.0045 24.7281 30.0875 24.8275C30.1705 24.9271 30.2913 24.9844 30.419 24.9844H33.5485C33.7241 24.9844 33.8942 24.92 34.0276 24.803C34.161 24.6861 34.2497 24.5238 34.2771 24.3463L34.3079 24.1828Z" fill="#27346A"></path>
</g>
<mask id="mask3_2_34" style="mask-type:luminance" maskUnits="userSpaceOnUse" x="26" y="5" width="80" height="20">
<path d="M26.0118 25H105.754V5.16586H26.0118V25Z" fill="white"></path>
</mask>
<g mask="url(#mask3_2_34)">
<path fill-rule="evenodd" clip-rule="evenodd" d="M32.1639 10.2255C32.2035 9.96747 32.3649 9.75636 32.5823 9.64949C32.6813 9.60101 32.7916 9.57394 32.9073 9.57394H37.6216C38.1801 9.57394 38.7009 9.61151 39.177 9.6901C39.313 9.71252 39.4453 9.73838 39.574 9.76768C39.7027 9.79697 39.8274 9.82949 39.9483 9.86586C40.0088 9.88384 40.0681 9.90283 40.1266 9.92283C40.3604 10.0024 40.578 10.0962 40.7782 10.2048C41.0143 8.66202 40.7766 7.61212 39.9625 6.66121C39.0661 5.61434 37.4468 5.16586 35.3749 5.16586H29.3606C28.9373 5.16586 28.5768 5.48162 28.5108 5.9103L26.0065 22.1877C25.957 22.5089 26.1993 22.7992 26.5164 22.7992H30.2292L32.1639 10.2255Z" fill="#27346A"></path>
</g>
<path fill-rule="evenodd" clip-rule="evenodd" d="M40.7782 10.2048C40.7603 10.3226 40.7404 10.4424 40.7167 10.5659C39.9238 14.7398 37.2103 16.1828 33.7446 16.1828H31.9798C31.5564 16.1828 31.1989 16.4988 31.1329 16.9275L29.973 24.4651C29.9298 24.7459 30.1417 25 30.419 25H33.5487C33.919 25 34.2343 24.7238 34.2921 24.3487L34.3228 24.1857L34.9123 20.3537L34.9504 20.142C35.0081 19.7669 35.3235 19.4907 35.6938 19.4907H36.1619C39.1938 19.4907 41.5678 18.2281 42.2615 14.5768C42.5513 13.0511 42.4015 11.7776 41.635 10.8822C41.4032 10.6115 41.1147 10.3875 40.7782 10.2048Z" fill="#2790C3"></path>
<path fill-rule="evenodd" clip-rule="evenodd" d="M39.9483 9.86586C39.8274 9.8295 39.7027 9.79697 39.574 9.76768C39.4453 9.73838 39.313 9.71253 39.177 9.6901C38.7009 9.61152 38.1801 9.57394 37.6216 9.57394H32.9073C32.7916 9.57394 32.6813 9.60101 32.5823 9.64949C32.3649 9.75636 32.2035 9.96747 32.1639 10.2255L31.1619 16.7374L31.1329 16.9275C31.1989 16.4988 31.5564 16.1828 31.9798 16.1828H33.7446C37.2102 16.1828 39.9238 14.7398 40.7167 10.5659C40.7404 10.4424 40.7603 10.3226 40.7782 10.2048C40.578 10.0962 40.3604 10.0024 40.1266 9.92283C40.0681 9.90283 40.0088 9.88384 39.9483 9.86586Z" fill="#1F264F"></path>
</g>
</g>
<defs>
<filter id="filter0_i_2_34" x="0" y="0" width="132" height="30" filterUnits="userSpaceOnUse" color-interpolation-filters="sRGB">
<feFlood flood-opacity="0" result="BackgroundImageFix"></feFlood>
<feBlend mode="normal" in="SourceGraphic" in2="BackgroundImageFix" result="shape"></feBlend>
<feColorMatrix in="SourceAlpha" type="matrix" values="0 0 0 0 0 0 0 0 0 0 0 0 0 0 0 0 0 0 127 0" result="hardAlpha"></feColorMatrix>
<feOffset dx="-1.5" dy="-1.5"></feOffset>
<feComposite in2="hardAlpha" operator="arithmetic" k2="-1" k3="1"></feComposite>
<feColorMatrix type="matrix" values="0 0 0 0 0 0 0 0 0 0 0 0 0 0 0 0 0 0 0.27 0"></feColorMatrix>
<feBlend mode="multiply" in2="shape" result="effect1_innerShadow_2_34"></feBlend>
</filter>
<clipPath id="clip0_2_34">
<rect width="80" height="20" fill="white" transform="translate(26 5)"></rect>
</clipPath>
</defs>
</svg>